<svg width="26" height="26" viewBox="0 0 26 26" fill="none" xmlns="http://www.w3.org/2000/svg">
<g clip-path="url(#clip0_1_376)">
<mask id="mask0_1_376" style="mask-type:luminance" maskUnits="userSpaceOnUse" x="0" y="0" width="138" height="26">
<path d="M138 0H0V26H138V0Z" fill="white"/>
</mask>
<g mask="url(#mask0_1_376)">
<path d="M15.1311 9.00977H10.1553C9.38783 9.00977 8.76562 9.65001 8.76562 10.4398V15.5598C8.76562 16.3496 9.38783 16.9898 10.1553 16.9898H15.1311C15.8987 16.9898 16.5208 16.3496 16.5208 15.5598V10.4398C16.5208 9.65001 15.8987 9.00977 15.1311 9.00977Z" fill="#FF9C00"/>
<path d="M15.1116 0H10.1358C9.36829 0 8.74609 0.640232 8.74609 1.43V6.55C8.74609 7.33977 9.36829 7.98 10.1358 7.98H15.1116C15.8791 7.98 16.5013 7.33977 16.5013 6.55V1.43C16.5013 0.640232 15.8791 0 15.1116 0Z" fill="#FF9C00"/>
<path d="M23.8584 18H18.8827C18.1151 18 17.493 18.6402 17.493 19.43V24.55C17.493 25.3398 18.1151 25.98 18.8827 25.98H23.8584C24.626 25.98 25.2482 25.3398 25.2482 24.55V19.43C25.2482 18.6402 24.626 18 23.8584 18Z" fill="#FF9C00"/>
<path d="M6.36549 9H1.38972C0.622197 9 0 9.64023 0 10.43V15.55C0 16.3398 0.622197 16.98 1.38972 16.98H6.36549C7.13302 16.98 7.75521 16.3398 7.75521 15.55V10.43C7.75521 9.64023 7.13302 9 6.36549 9Z" fill="black"/>
<path d="M6.36549 0H1.38972C0.622197 0 0 0.640232 0 1.43V6.55C0 7.33977 0.622197 7.98 1.38972 7.98H6.36549C7.13302 7.98 7.75521 7.33977 7.75521 6.55V1.43C7.75521 0.640232 7.13302 0 6.36549 0Z" fill="black"/>
<path d="M23.8584 0H18.8827C18.1151 0 17.493 0.640232 17.493 1.43V6.55C17.493 7.33977 18.1151 7.98 18.8827 7.98H23.8584C24.626 7.98 25.2482 7.33977 25.2482 6.55V1.43C25.2482 0.640232 24.626 0 23.8584 0Z" fill="black"/>
<path d="M15.1116 18H10.1358C9.36829 18 8.74609 18.6402 8.74609 19.43V24.55C8.74609 25.3398 9.36829 25.98 10.1358 25.98H15.1116C15.8791 25.98 16.5013 25.3398 16.5013 24.55V19.43C16.5013 18.6402 15.8791 18 15.1116 18Z" fill="black"/>
<path d="M6.36549 18H1.38972C0.622197 18 0 18.6402 0 19.43V24.55C0 25.3398 0.622197 25.98 1.38972 25.98H6.36549C7.13302 25.98 7.75521 25.3398 7.75521 24.55V19.43C7.75521 18.6402 7.13302 18 6.36549 18Z" fill="black"/>
<path d="M23.8467 8.97274L18.8518 9.02657C18.0842 9.03484 17.4686 9.68174 17.4766 10.4714L17.5289 15.6112C17.537 16.4009 18.1657 17.0344 18.9331 17.0261L23.9281 16.9723C24.6956 16.964 25.3113 16.3171 25.3032 15.5274L25.2509 10.3877C25.2428 9.59797 24.6142 8.96447 23.8467 8.97274Z" fill="#FF9C00"/>
</g>
</g>
<defs>
<clipPath id="clip0_1_376">
<rect width="138" height="26" fill="white"/>
</clipPath>
</defs>
</svg>
